{
    "asset" : {
        "generator" : "Khronos glTF Blender I/O v1.4.40",
        "version" : "2.0"
    },
    "scene" : 0,
    "scenes" : [
        {
            "name" : "Scene",
            "nodes" : [
                0,
                1,
                2,
                3
            ]
        }
    ],
    "nodes" : [
        {
            "mesh" : 0,
            "name" : "Cone"
        },
        {
            "mesh" : 1,
            "name" : "Cylinder"
        },
        {
            "mesh" : 2,
            "name" : "Cylinder.001",
            "translation" : [
                0,
                0,
                -3.805298089981079
            ]
        },
        {
            "mesh" : 3,
            "name" : "Sphere",
            "scale" : [
                1.2361986637115479,
                1.019934058189392,
                1.4796440601348877
            ],
            "translation" : [
                0,
                0.6535482406616211,
                -3.8200771808624268
            ]
        }
    ],
    "materials" : [
        {
            "doubleSided" : true,
            "name" : "Material.001",
            "pbrMetallicRoughness" : {
                "baseColorFactor" : [
                    0.16999037563800812,
                    0.05133422091603279,
                    0.024391531944274902,
                    1
                ],
                "metallicFactor" : 0,
                "roughnessFactor" : 0.3897637724876404
            }
        },
        {
            "doubleSided" : true,
            "name" : "Material.002",
            "pbrMetallicRoughness" : {
                "baseColorTexture" : {
                    "index" : 0,
                    "texCoord" : 0
                },
                "metallicFactor" : 0,
                "roughnessFactor" : 0.5
            }
        },
        {
            "doubleSided" : true,
            "name" : "Material.003",
            "pbrMetallicRoughness" : {
                "baseColorTexture" : {
                    "index" : 1,
                    "texCoord" : 0
                },
                "metallicFactor" : 0,
                "roughnessFactor" : 0.8307089805603027
            }
        }
    ],
    "meshes" : [
        {
            "name" : "Cone",
            "primitives" : [
                {
                    "attributes" : {
                        "POSITION" : 0,
                        "NORMAL" : 1,
                        "TEXCOORD_0" : 2
                    },
                    "indices" : 3,
                    "material" : 0
                }
            ]
        },
        {
            "name" : "Cylinder",
            "primitives" : [
                {
                    "attributes" : {
                        "POSITION" : 4,
                        "NORMAL" : 5,
                        "TEXCOORD_0" : 6
                    },
                    "indices" : 7,
                    "material" : 1
                }
            ]
        },
        {
            "name" : "Cylinder.001",
            "primitives" : [
                {
                    "attributes" : {
                        "POSITION" : 8,
                        "NORMAL" : 9,
                        "TEXCOORD_0" : 10
                    },
                    "indices" : 7,
                    "material" : 1
                }
            ]
        },
        {
            "name" : "Sphere",
            "primitives" : [
                {
                    "attributes" : {
                        "POSITION" : 11,
                        "NORMAL" : 12,
                        "TEXCOORD_0" : 13
                    },
                    "indices" : 14,
                    "material" : 2
                }
            ]
        }
    ],
    "textures" : [
        {
            "sampler" : 0,
            "source" : 0
        },
        {
            "sampler" : 0,
            "source" : 1
        }
    ],
    "images" : [
        {
            "bufferView" : 8,
            "mimeType" : "image/jpeg",
            "name" : "50739590-puff-pastry-close-up-fragment-as-a-background-texture-composition"
        },
        {
            "bufferView" : 16,
            "mimeType" : "image/jpeg",
            "name" : "close-up-macro-photograph-chocolate-cake-texture-brownie-69390537"
        }
    ],
    "accessors" : [
        {
            "bufferView" : 0,
            "componentType" : 5126,
            "count" : 3449,
            "max" : [
                1.471949815750122,
                2.293056011199951,
                1.4719500541687012
            ],
            "min" : [
                -1.471949815750122,
                -0.652667760848999,
                -1.471949815750122
            ],
            "type" : "VEC3"
        },
        {
            "bufferView" : 1,
            "componentType" : 5126,
            "count" : 3449,
            "type" : "VEC3"
        },
        {
            "bufferView" : 2,
            "componentType" : 5126,
            "count" : 3449,
            "type" : "VEC2"
        },
        {
            "bufferView" : 3,
            "componentType" : 5123,
            "count" : 14112,
            "type" : "SCALAR"
        },
        {
            "bufferView" : 4,
            "componentType" : 5126,
            "count" : 1152,
            "max" : [
                1.4633419513702393,
                0.6361820101737976,
                1.4633415937423706
            ],
            "min" : [
                -1.4633415937423706,
                -0.6919729709625244,
                -1.4633415937423706
            ],
            "type" : "VEC3"
        },
        {
            "bufferView" : 5,
            "componentType" : 5126,
            "count" : 1152,
            "type" : "VEC3"
        },
        {
            "bufferView" : 6,
            "componentType" : 5126,
            "count" : 1152,
            "type" : "VEC2"
        },
        {
            "bufferView" : 7,
            "componentType" : 5123,
            "count" : 1908,
            "type" : "SCALAR"
        },
        {
            "bufferView" : 9,
            "componentType" : 5126,
            "count" : 1152,
            "max" : [
                1.4633419513702393,
                0.6361820101737976,
                1.4633415937423706
            ],
            "min" : [
                -1.4633415937423706,
                -0.6919729709625244,
                -1.4633415937423706
            ],
            "type" : "VEC3"
        },
        {
            "bufferView" : 10,
            "componentType" : 5126,
            "count" : 1152,
            "type" : "VEC3"
        },
        {
            "bufferView" : 11,
            "componentType" : 5126,
            "count" : 1152,
            "type" : "VEC2"
        },
        {
            "bufferView" : 12,
            "componentType" : 5126,
            "count" : 149,
            "max" : [
                1.0384435653686523,
                0.5353152751922607,
                0.8907995820045471
            ],
            "min" : [
                -1.0384433269500732,
                -0.8098814487457275,
                -0.8907991051673889
            ],
            "type" : "VEC3"
        },
        {
            "bufferView" : 13,
            "componentType" : 5126,
            "count" : 149,
            "type" : "VEC3"
        },
        {
            "bufferView" : 14,
            "componentType" : 5126,
            "count" : 149,
            "type" : "VEC2"
        },
        {
            "bufferView" : 15,
            "componentType" : 5123,
            "count" : 624,
            "type" : "SCALAR"
        }
    ],
    "bufferViews" : [
        {
            "buffer" : 0,
            "byteLength" : 41388,
            "byteOffset" : 0
        },
        {
            "buffer" : 0,
            "byteLength" : 41388,
            "byteOffset" : 41388
        },
        {
            "buffer" : 0,
            "byteLength" : 27592,
            "byteOffset" : 82776
        },
        {
            "buffer" : 0,
            "byteLength" : 28224,
            "byteOffset" : 110368
        },
        {
            "buffer" : 0,
            "byteLength" : 13824,
            "byteOffset" : 138592
        },
        {
            "buffer" : 0,
            "byteLength" : 13824,
            "byteOffset" : 152416
        },
        {
            "buffer" : 0,
            "byteLength" : 9216,
            "byteOffset" : 166240
        },
        {
            "buffer" : 0,
            "byteLength" : 3816,
            "byteOffset" : 175456
        },
        {
            "buffer" : 0,
            "byteLength" : 140324,
            "byteOffset" : 179272
        },
        {
            "buffer" : 0,
            "byteLength" : 13824,
            "byteOffset" : 319596
        },
        {
            "buffer" : 0,
            "byteLength" : 13824,
            "byteOffset" : 333420
        },
        {
            "buffer" : 0,
            "byteLength" : 9216,
            "byteOffset" : 347244
        },
        {
            "buffer" : 0,
            "byteLength" : 1788,
            "byteOffset" : 356460
        },
        {
            "buffer" : 0,
            "byteLength" : 1788,
            "byteOffset" : 358248
        },
        {
            "buffer" : 0,
            "byteLength" : 1192,
            "byteOffset" : 360036
        },
        {
            "buffer" : 0,
            "byteLength" : 1248,
            "byteOffset" : 361228
        },
        {
            "buffer" : 0,
            "byteLength" : 197008,
            "byteOffset" : 362476
        }
    ],
    "samplers" : [
        {
            "magFilter" : 9729,
            "minFilter" : 9986
        }
    ],
    "buffers" : [
        {
            "byteLength" : 559484,
            "uri" : "data:application/octet-stream;base64,"
        }
    ]
}
