{
    "asset" : {
        "generator" : "Khronos glTF Blender I/O v1.4.40",
        "version" : "2.0"
    },
    "scene" : 0,
    "scenes" : [
        {
            "name" : "Scene",
            "nodes" : [
                0,
                1,
                2,
                3
            ]
        }
    ],
    "nodes" : [
        {
            "mesh" : 0,
            "name" : "Screenshot 2021-05-16 160319"
        },
        {
            "mesh" : 1,
            "name" : "Circle",
            "scale" : [
                0.09151188284158707,
                0.09151188284158707,
                0.09151188284158707
            ],
            "translation" : [
                0.3041301369667053,
                0.10865809768438339,
                0.5751933455467224
            ]
        },
        {
            "mesh" : 2,
            "name" : "Circle.001",
            "rotation" : [
                -0.928915798664093,
                0.2774756848812103,
                0.230715811252594,
                -0.08302342891693115
            ],
            "scale" : [
                0.12006581574678421,
                0.08079759031534195,
                0.08091633021831512
            ],
            "translation" : [
                0.12664662301540375,
                -0.04125209152698517,
                0.196609765291214
            ]
        },
        {
            "mesh" : 3,
            "name" : "Cylinder",
            "rotation" : [
                0,
                0.024712510406970978,
                0,
                0.9996945858001709
            ],
            "scale" : [
                0.5464939475059509,
                0.5464938879013062,
                0.5464939475059509
            ],
            "translation" : [
                0.005114917643368244,
                0.008364841341972351,
                0.015500989742577076
            ]
        }
    ],
    "materials" : [
        {
            "doubleSided" : true,
            "name" : "Material.001",
            "pbrMetallicRoughness" : {
                "baseColorTexture" : {
                    "index" : 0,
                    "texCoord" : 0
                },
                "metallicFactor" : 0,
                "roughnessFactor" : 0.5
            }
        },
        {
            "doubleSided" : true,
            "name" : "Material.002",
            "pbrMetallicRoughness" : {
                "baseColorTexture" : {
                    "index" : 1,
                    "texCoord" : 0
                },
                "metallicFactor" : 0,
                "roughnessFactor" : 0.5
            }
        },
        {
            "doubleSided" : true,
            "name" : "strawberrycut",
            "pbrMetallicRoughness" : {
                "baseColorTexture" : {
                    "index" : 2,
                    "texCoord" : 0
                },
                "metallicFactor" : 0,
                "roughnessFactor" : 0.5
            }
        }
    ],
    "meshes" : [
        {
            "name" : "Screenshot 2021-05-16 160319",
            "primitives" : [
                {
                    "attributes" : {
                        "POSITION" : 0,
                        "NORMAL" : 1,
                        "TEXCOORD_0" : 2
                    },
                    "indices" : 3,
                    "material" : 0
                }
            ]
        },
        {
            "name" : "Circle",
            "primitives" : [
                {
                    "attributes" : {
                        "POSITION" : 4,
                        "NORMAL" : 5,
                        "TEXCOORD_0" : 6
                    },
                    "indices" : 7,
                    "material" : 1
                },
                {
                    "attributes" : {
                        "POSITION" : 8,
                        "NORMAL" : 9,
                        "TEXCOORD_0" : 10
                    },
                    "indices" : 11,
                    "material" : 2
                }
            ]
        },
        {
            "name" : "Circle.001",
            "primitives" : [
                {
                    "attributes" : {
                        "POSITION" : 12,
                        "NORMAL" : 13,
                        "TEXCOORD_0" : 14
                    },
                    "indices" : 7,
                    "material" : 1
                },
                {
                    "attributes" : {
                        "POSITION" : 15,
                        "NORMAL" : 16,
                        "TEXCOORD_0" : 17
                    },
                    "indices" : 11,
                    "material" : 2
                }
            ]
        },
        {
            "name" : "Cylinder.001",
            "primitives" : [
                {
                    "attributes" : {
                        "POSITION" : 18,
                        "NORMAL" : 19,
                        "TEXCOORD_0" : 20
                    },
                    "indices" : 21,
                    "material" : 0
                }
            ]
        }
    ],
    "textures" : [
        {
            "sampler" : 0,
            "source" : 0
        },
        {
            "sampler" : 0,
            "source" : 1
        },
        {
            "sampler" : 0,
            "source" : 2
        }
    ],
    "images" : [
        {
            "bufferView" : 4,
            "mimeType" : "image/png",
            "name" : "Screenshot 2021-05-16 160319"
        },
        {
            "bufferView" : 9,
            "mimeType" : "image/jpeg",
            "name" : "19882b17f33950b6dd00663666ec0a44f69e2330"
        },
        {
            "bufferView" : 14,
            "mimeType" : "image/jpeg",
            "name" : "juicy-strawberry-cut-half-37817657"
        }
    ],
    "accessors" : [
        {
            "bufferView" : 0,
            "componentType" : 5126,
            "count" : 4263,
            "max" : [
                0.5357846021652222,
                0.020431257784366608,
                0.4839261770248413
            ],
            "min" : [
                -0.4383942484855652,
                -0.11588248610496521,
                -0.48162350058555603
            ],
            "type" : "VEC3"
        },
        {
            "bufferView" : 1,
            "componentType" : 5126,
            "count" : 4263,
            "type" : "VEC3"
        },
        {
            "bufferView" : 2,
            "componentType" : 5126,
            "count" : 4263,
            "type" : "VEC2"
        },
        {
            "bufferView" : 3,
            "componentType" : 5123,
            "count" : 9216,
            "type" : "SCALAR"
        },
        {
            "bufferView" : 5,
            "componentType" : 5126,
            "count" : 1120,
            "max" : [
                -1.5157217979431152,
                -1.3043417930603027,
                -2.7356061935424805
            ],
            "min" : [
                -2.2879958152770996,
                -1.897352695465088,
                -3.5691518783569336
            ],
            "type" : "VEC3"
        },
        {
            "bufferView" : 6,
            "componentType" : 5126,
            "count" : 1120,
            "type" : "VEC3"
        },
        {
            "bufferView" : 7,
            "componentType" : 5126,
            "count" : 1120,
            "type" : "VEC2"
        },
        {
            "bufferView" : 8,
            "componentType" : 5123,
            "count" : 1632,
            "type" : "SCALAR"
        },
        {
            "bufferView" : 10,
            "componentType" : 5126,
            "count" : 32,
            "max" : [
                -1.5286719799041748,
                -1.3043417930603027,
                -2.7702107429504395
            ],
            "min" : [
                -2.2111268043518066,
                -1.6524828672409058,
                -3.5361404418945312
            ],
            "type" : "VEC3"
        },
        {
            "bufferView" : 11,
            "componentType" : 5126,
            "count" : 32,
            "type" : "VEC3"
        },
        {
            "bufferView" : 12,
            "componentType" : 5126,
            "count" : 32,
            "type" : "VEC2"
        },
        {
            "bufferView" : 13,
            "componentType" : 5123,
            "count" : 90,
            "type" : "SCALAR"
        },
        {
            "bufferView" : 15,
            "componentType" : 5126,
            "count" : 1120,
            "max" : [
                0.42373692989349365,
                0.3109203577041626,
                0.41411304473876953
            ],
            "min" : [
                -0.3485370874404907,
                -0.28209054470062256,
                -0.4194326400756836
            ],
            "type" : "VEC3"
        },
        {
            "bufferView" : 16,
            "componentType" : 5126,
            "count" : 1120,
            "type" : "VEC3"
        },
        {
            "bufferView" : 17,
            "componentType" : 5126,
            "count" : 1120,
            "type" : "VEC2"
        },
        {
            "bufferView" : 18,
            "componentType" : 5126,
            "count" : 32,
            "max" : [
                0.4107867479324341,
                0.3109203577041626,
                0.37950849533081055
            ],
            "min" : [
                -0.27166807651519775,
                -0.03722071647644043,
                -0.38642120361328125
            ],
            "type" : "VEC3"
        },
        {
            "bufferView" : 19,
            "componentType" : 5126,
            "count" : 32,
            "type" : "VEC3"
        },
        {
            "bufferView" : 20,
            "componentType" : 5126,
            "count" : 32,
            "type" : "VEC2"
        },
        {
            "bufferView" : 21,
            "componentType" : 5126,
            "count" : 1152,
            "max" : [
                1.036747694015503,
                0.04743587225675583,
                0.9234164953231812
            ],
            "min" : [
                -0.8584834933280945,
                -0.23025640845298767,
                -0.9718145728111267
            ],
            "type" : "VEC3"
        },
        {
            "bufferView" : 22,
            "componentType" : 5126,
            "count" : 1152,
            "type" : "VEC3"
        },
        {
            "bufferView" : 23,
            "componentType" : 5126,
            "count" : 1152,
            "type" : "VEC2"
        },
        {
            "bufferView" : 24,
            "componentType" : 5123,
            "count" : 1908,
            "type" : "SCALAR"
        }
    ],
    "bufferViews" : [
        {
            "buffer" : 0,
            "byteLength" : 51156,
            "byteOffset" : 0
        },
        {
            "buffer" : 0,
            "byteLength" : 51156,
            "byteOffset" : 51156
        },
        {
            "buffer" : 0,
            "byteLength" : 34104,
            "byteOffset" : 102312
        },
        {
            "buffer" : 0,
            "byteLength" : 18432,
            "byteOffset" : 136416
        },
        {
            "buffer" : 0,
            "byteLength" : 462320,
            "byteOffset" : 154848
        },
        {
            "buffer" : 0,
            "byteLength" : 13440,
            "byteOffset" : 617168
        },
        {
            "buffer" : 0,
            "byteLength" : 13440,
            "byteOffset" : 630608
        },
        {
            "buffer" : 0,
            "byteLength" : 8960,
            "byteOffset" : 644048
        },
        {
            "buffer" : 0,
            "byteLength" : 3264,
            "byteOffset" : 653008
        },
        {
            "buffer" : 0,
            "byteLength" : 113248,
            "byteOffset" : 656272
        },
        {
            "buffer" : 0,
            "byteLength" : 384,
            "byteOffset" : 769520
        },
        {
            "buffer" : 0,
            "byteLength" : 384,
            "byteOffset" : 769904
        },
        {
            "buffer" : 0,
            "byteLength" : 256,
            "byteOffset" : 770288
        },
        {
            "buffer" : 0,
            "byteLength" : 180,
            "byteOffset" : 770544
        },
        {
            "buffer" : 0,
            "byteLength" : 76957,
            "byteOffset" : 770724
        },
        {
            "buffer" : 0,
            "byteLength" : 13440,
            "byteOffset" : 847684
        },
        {
            "buffer" : 0,
            "byteLength" : 13440,
            "byteOffset" : 861124
        },
        {
            "buffer" : 0,
            "byteLength" : 8960,
            "byteOffset" : 874564
        },
        {
            "buffer" : 0,
            "byteLength" : 384,
            "byteOffset" : 883524
        },
        {
            "buffer" : 0,
            "byteLength" : 384,
            "byteOffset" : 883908
        },
        {
            "buffer" : 0,
            "byteLength" : 256,
            "byteOffset" : 884292
        },
        {
            "buffer" : 0,
            "byteLength" : 13824,
            "byteOffset" : 884548
        },
        {
            "buffer" : 0,
            "byteLength" : 13824,
            "byteOffset" : 898372
        },
        {
            "buffer" : 0,
            "byteLength" : 9216,
            "byteOffset" : 912196
        },
        {
            "buffer" : 0,
            "byteLength" : 3816,
            "byteOffset" : 921412
        }
    ],
    "samplers" : [
        {
            "magFilter" : 9729,
            "minFilter" : 9986
        }
    ],
    "buffers" : [
        {
            "byteLength" : 925228,
            "uri" : "data:application/octet-stream;base64,"
        }
    ]
}
